<svg width="335" height="339" viewBox="0 0 335 339" fill="none" xmlns="http://www.w3.org/2000/svg">
<g clip-path="url(#clip0_221_1085)">
<mask id="mask0_221_1085" style="mask-type:luminance" maskUnits="userSpaceOnUse" x="0" y="0" width="335" height="339">
<path d="M334.044 0H0V339H334.044V0Z" fill="white"/>
</mask>
<g mask="url(#mask0_221_1085)">
<path d="M91.9029 182.502C93.0127 182.047 93.9588 181.265 94.6145 180.26C95.2882 179.13 95.7088 177.867 95.847 176.558C96.0549 174.836 96.1515 173.102 96.1378 171.367C96.1926 170.383 96.0439 169.398 95.6996 168.474C95.3553 167.55 94.8237 166.708 94.1382 166C92.1486 164.495 89.6642 163.799 87.1836 164.05H82V183.287H87.1836C88.7911 183.351 90.3946 183.089 91.8989 182.518L91.9029 182.502Z" fill="black"/>
<path d="M95.9981 218.97C97.5669 218.381 98.9043 217.369 99.8311 216.066C100.783 214.602 101.378 212.966 101.573 211.27C101.867 209.039 102.004 206.793 101.984 204.545C102.062 203.27 101.852 201.993 101.365 200.796C100.878 199.599 100.127 198.508 99.1578 197.591C96.3454 195.642 92.8337 194.74 89.3272 195.065H82V219.988H89.3272C91.5994 220.07 93.8661 219.731 95.9924 218.991L95.9981 218.97Z" fill="black"/>
<path d="M268.799 289.476C269.897 288.604 270.833 287.105 271.482 285.178C272.148 283.011 272.565 280.589 272.701 278.08C272.907 274.778 273.003 271.453 272.989 268.127C273.043 266.239 272.896 264.35 272.555 262.579C272.215 260.807 271.689 259.192 271.01 257.835C269.042 254.95 266.584 253.614 264.129 254.097H259V290.982H264.129C265.72 291.104 267.306 290.602 268.795 289.507L268.799 289.476Z" fill="black"/>
<path d="M292.59 200.344C285.522 200.344 281.986 202.154 281.984 205.773V235.034H264.658L262.304 229.016C261.506 230.12 260.505 231.06 259.355 231.788C257.75 232.83 256.029 233.681 254.229 234.326C251.783 235.203 249.257 235.834 246.687 236.21C243.353 236.712 239.984 236.95 236.612 236.922C231.796 236.906 227.01 236.17 222.412 234.737C217.604 233.252 213.207 230.666 209.568 227.186C205.461 223.164 202.282 218.292 200.256 212.909C197.652 205.752 196.432 198.164 196.661 190.551C196.48 183.489 197.661 176.459 200.14 169.846C202.168 164.578 205.303 159.808 209.333 155.861C213.059 152.294 217.525 149.595 222.412 147.956C227.291 146.312 232.405 145.479 237.553 145.488C248.78 145.488 257.186 147.613 262.773 151.863L265.126 147.376H279.503V176.048L264.305 177.232C262.733 165.902 257.038 160.237 247.218 160.237C244.011 160.146 240.821 160.729 237.852 161.948C235.291 163.093 233.135 164.985 231.666 167.378C229.938 170.28 228.796 173.494 228.307 176.838C227.584 181.383 227.248 185.981 227.304 190.584C227.183 195.998 227.596 201.411 228.536 206.744C229.052 209.955 230.302 213.004 232.188 215.653C233.631 217.555 235.696 218.891 238.021 219.429C240.537 219.967 243.105 220.225 245.677 220.198C247.671 220.202 249.661 220.043 251.629 219.725C253.409 219.459 255.138 218.922 256.756 218.133C258.159 217.463 259.389 216.477 260.35 215.254C261.267 214.031 261.744 212.534 261.705 211.005V205.814C261.705 202.195 258.169 200.385 251.099 200.385V187.996H292.586V200.385L292.59 200.344ZM290.125 285.806C289.344 289.143 287.689 292.212 285.331 294.698C282.978 296.946 280.044 298.492 276.861 299.161C272.735 300.048 268.521 300.462 264.301 300.395H233.761V292.58C238.167 292.58 240.372 291.439 240.375 289.158V256.323C240.375 254.041 238.17 252.901 233.761 252.901V245.086H264.301C268.507 245.032 272.709 245.343 276.861 246.016C279.966 246.469 282.892 247.747 285.335 249.717C287.672 251.834 289.339 254.589 290.13 257.643C291.267 262.088 291.778 266.671 291.649 271.258C291.764 276.14 291.254 281.016 290.13 285.768L290.125 285.806ZM224.326 300.386H170.899V292.571C175.305 292.571 177.509 291.431 177.512 289.149V256.323C177.512 254.041 175.308 252.901 170.899 252.901V245.086H224.326V261.83L214.665 262.201C214.665 256.991 212.312 254.386 207.604 254.386H196.308V267.626H199.134C200.819 267.626 201.882 265.047 202.325 259.889H210.652L209.535 283.107H201.361C200.813 277.749 199.897 275.07 198.613 275.07H196.312V291.07H204.938C212.266 291.07 216.056 286.928 216.308 278.645L226.116 279.163L224.334 300.37L224.326 300.386ZM163.994 300.386H133.96V292.571C136.972 292.571 138.478 291.431 138.478 289.149V275.831H124.656V289.149C124.656 291.431 126.162 292.571 129.174 292.571V300.386H99.226V292.571C103.632 292.571 105.836 291.431 105.839 289.149V256.323C105.839 254.041 103.635 252.901 99.226 252.901V245.086H129.174V252.901C126.162 252.901 124.656 254.041 124.656 256.323V266.889H138.478V256.323C138.478 254.041 136.972 252.901 133.96 252.901V245.086H163.981V252.901C159.518 252.901 157.289 254.041 157.295 256.323V289.137C157.295 291.418 159.523 292.559 163.981 292.559V300.374L163.994 300.386ZM41.8555 235.034V222.645C48.8438 222.645 52.3393 220.835 52.342 217.216V166.366C52.342 162.749 48.8465 160.939 41.8555 160.937V147.363H95.8285C100.238 147.335 104.645 147.571 109.027 148.071C112.419 148.399 115.708 149.424 118.688 151.082C121.296 152.636 123.355 154.967 124.577 157.749C126.052 161.419 126.736 165.361 126.582 169.315C126.649 171.982 126.231 174.64 125.35 177.158C124.601 179.203 123.414 181.058 121.871 182.592C120.328 184.08 118.516 185.26 116.531 186.067C114.353 186.96 112.079 187.594 109.754 187.955C115.803 188.174 121.633 190.278 126.431 193.973C128.481 195.864 130.08 198.193 131.11 200.788C132.139 203.383 132.573 206.176 132.378 208.961C132.488 213.214 131.911 217.457 130.67 221.526C129.64 224.713 127.668 227.512 125.014 229.551C121.929 231.745 118.381 233.199 114.645 233.8C109.411 234.701 104.105 235.115 98.7948 235.034H41.8555ZM90.69 291.05C89.6576 293.263 88.1485 295.22 86.2705 296.779C84.3027 298.388 82.0438 299.602 79.6168 300.353C76.9371 301.192 74.143 301.609 71.3355 301.587C68.8198 301.629 66.3053 301.434 63.8263 301.003C62.1513 300.697 60.5033 300.258 58.8975 299.691C57.5858 299.206 56.4902 298.769 55.6112 298.379C54.8172 298.011 53.9558 297.812 53.0811 297.795C52.4279 297.782 51.789 297.984 51.262 298.371C50.6328 298.912 50.1582 299.61 49.8861 300.395H41.4894V281.413L49.8861 280.968C49.9247 282.698 50.4281 284.385 51.3432 285.852C52.2583 287.319 53.5507 288.512 55.0857 289.306C59.0059 291.152 63.3149 292.02 67.6431 291.835C70.0656 291.933 72.4823 291.529 74.7411 290.647C75.6061 290.249 76.3251 289.59 76.7979 288.762C77.2707 287.935 77.4731 286.98 77.3775 286.032C77.389 285.371 77.2092 284.721 76.86 284.161C76.5109 283.6 76.0074 283.153 75.41 282.873C73.8053 282.051 72.0915 281.462 70.3206 281.125C68.2395 280.681 65.912 280.269 63.338 279.891C60.7551 279.517 58.1979 278.983 55.6814 278.291C53.2613 277.642 50.9384 276.673 48.7729 275.412C47.068 274.413 45.5776 273.085 44.3896 271.504C43.2827 269.981 42.4984 268.246 42.0851 266.408C41.6164 264.295 41.3924 262.135 41.4162 259.971C41.406 257.849 41.7846 255.742 42.5334 253.756C43.2687 251.808 44.4375 250.052 45.951 248.623C47.6207 247.078 49.5945 245.899 51.7463 245.164C54.428 244.265 57.2454 243.838 60.0728 243.902C62.4741 243.863 64.8732 244.048 67.24 244.457C68.8563 244.751 70.4466 245.173 71.9963 245.719C73.2587 246.191 74.2994 246.613 75.1181 246.986C75.8253 247.333 76.5985 247.524 77.3855 247.546C78.2021 247.588 79.0141 247.394 79.7231 246.986C80.4238 246.475 81.0173 245.831 81.469 245.09H88.8989V262.945L80.5033 263.615C80.2345 261.877 79.573 260.222 78.5689 258.778C77.6383 257.497 76.433 256.442 75.0409 255.689C73.505 254.878 71.851 254.313 70.1401 254.016C68.1667 253.659 66.1646 253.484 64.1593 253.493C63.0912 253.49 62.0246 253.553 60.9643 253.682C60.0689 253.782 59.192 254.007 58.3599 254.353C57.6547 254.646 57.0394 255.122 56.5769 255.731C56.1135 256.381 55.8777 257.166 55.907 257.964C55.9201 258.664 56.1486 259.344 56.5609 259.91C56.9732 260.476 57.5495 260.901 58.2115 261.127C60.0924 261.956 62.0616 262.568 64.0811 262.949C66.4607 263.448 69.0991 263.944 71.9963 264.438C74.8596 264.928 77.6784 265.65 80.4251 266.597C83.9208 267.651 87.017 269.739 89.3061 272.586C91.4569 275.722 92.5136 279.481 92.3126 283.28C92.3651 285.959 91.8196 288.617 90.7151 291.058L90.69 291.05ZM42.04 133.572C45.2001 133.572 46.7803 132.75 46.7803 131.104V107.582C46.7803 105.936 45.2001 105.114 42.04 105.114V99.516H66.1679V105.114C62.2301 105.114 60.26 105.936 60.2573 107.582V132.519H68.0372C68.8742 132.555 69.707 132.381 70.46 132.013C71.2131 131.645 71.8629 131.096 72.3503 130.413C73.583 128.356 74.2622 126.013 74.3219 123.614L80.2817 123.989L79.0041 139.207H42.036V133.605L42.04 133.572ZM85.8273 133.572C89.023 133.572 90.6208 132.75 90.6208 131.104V107.582C90.6208 105.936 89.023 105.114 85.8273 105.114V99.516H108.829V105.114C105.666 105.114 104.088 105.936 104.094 107.582V131.104C104.094 132.75 105.672 133.572 108.829 133.572V139.174H85.8273V133.572ZM114.428 99.5446H155.729V115.865L149.868 116.026C149.654 109.481 147.808 106.209 144.327 106.212H141.821V131.121C141.821 132.766 143.419 133.589 146.615 133.589V139.191H123.613V133.589C126.77 133.589 128.35 132.766 128.353 131.121V106.195H125.798C122.317 106.195 120.47 109.467 120.256 116.009L114.399 115.849V99.5283L114.428 99.5446ZM191.392 147.367V159.76C184.398 159.76 180.902 161.569 180.905 165.185V217.216C180.905 220.835 184.401 222.645 191.392 222.645V235.034H140.486V222.645C147.559 222.645 151.096 220.835 151.096 217.216V165.185C151.096 161.566 147.559 159.757 140.486 159.76V147.367H191.392ZM161.784 99.5446H203.119V115.865L197.261 116.026C197.048 109.481 195.201 106.209 191.721 106.212H189.214V131.121C189.214 132.766 190.812 133.589 194.008 133.589V139.191H171.005V133.589C174.163 133.589 175.743 132.766 175.746 131.121V106.195H173.186C169.709 106.195 167.863 109.467 167.65 116.009L161.792 115.849V99.5283L161.784 99.5446ZM208.073 133.572C211.233 133.572 212.813 132.75 212.813 131.104V107.582C212.813 105.936 211.233 105.114 208.073 105.114V99.516H232.201V105.114C228.26 105.114 226.289 105.936 226.289 107.582V132.519H234.061C234.898 132.555 235.732 132.381 236.486 132.014C237.239 131.646 237.89 131.096 238.378 130.413C239.61 128.355 240.289 126.013 240.349 123.614L246.309 123.989L245.033 139.207H208.065V133.605L208.073 133.572ZM251.321 133.572C254.479 133.572 256.058 132.75 256.061 131.104V107.582C256.061 105.936 254.481 105.114 251.321 105.114V99.516H289.62V111.542L282.695 111.81C282.695 108.078 281.007 106.212 277.633 106.212H269.51V115.705H271.534C272.742 115.705 273.505 113.855 273.826 110.156H279.795L278.973 126.798H273.116C272.727 122.959 272.07 121.04 271.144 121.04H269.501V132.519H275.662C280.92 132.519 283.637 129.551 283.812 123.614L290.844 123.989L289.566 139.207H251.267V133.605L251.321 133.572ZM334.067 98.3602L172.484 6.14477C172.484 5.3378 172.325 4.53879 172.017 3.79325C171.709 3.04771 171.257 2.37033 170.687 1.79972C170.117 1.22911 169.44 0.776504 168.696 0.467692C167.951 0.15888 167.154 0 166.348 0C165.542 0 164.744 0.15888 163.999 0.467692C163.255 0.776504 162.578 1.22911 162.008 1.79972C161.438 2.37033 160.986 3.04771 160.678 3.79325C160.37 4.53879 160.211 5.3378 160.211 6.14477L0.015625 96.7889V121.879L13.8456 114.064V338.996H270.98C271.639 334.525 271.163 329.96 269.596 325.723C273.584 328.772 276.385 333.118 277.519 338.013C277.519 338.013 279.934 319.183 288.609 310.509C286.231 319.831 286.006 329.574 287.953 338.996H288.215C288.897 335.434 293.054 315.477 301.865 308.97C298.098 318.501 296.895 328.854 298.377 338.996H298.89C299.589 335.598 301.848 326.747 306.962 323.777C306.962 323.777 303.422 333.957 307.677 338.996H318.854V114.833L334.08 123.429V98.3396L334.067 98.3602Z" fill="black"/>
</g>
</g>
<defs>
<clipPath id="clip0_221_1085">
<rect width="334.044" height="339" fill="white"/>
</clipPath>
</defs>
</svg>
